<svg xmlns="http://www.w3.org/2000/svg" viewBox="0 0 512 512">
  <defs>
    <linearGradient id="bg" x1="0%" y1="0%" x2="100%" y2="100%">
      <stop offset="0%" style="stop-color:#1f1f23"/>
      <stop offset="100%" style="stop-color:#18181b"/>
    </linearGradient>
    <linearGradient id="pink" x1="0%" y1="0%" x2="100%" y2="100%">
      <stop offset="0%" style="stop-color:#f472b6"/>
      <stop offset="100%" style="stop-color:#ec4899"/>
    </linearGradient>
    <filter id="glow" x="-20%" y="-20%" width="140%" height="140%">
      <feGaussianBlur stdDeviation="8" result="coloredBlur"/>
      <feMerge>
        <feMergeNode in="coloredBlur"/>
        <feMergeNode in="SourceGraphic"/>
      </feMerge>
    </filter>
  </defs>

  <!-- Background with rounded corners -->
  <rect width="512" height="512" rx="96" ry="96" fill="url(#bg)"/>

  <!-- Subtle film grain texture effect -->
  <rect width="512" height="512" rx="96" ry="96" fill="url(#bg)" opacity="0.3"/>

  <!-- Stylized B letter -->
  <g filter="url(#glow)">
    <path d="M152 96h144c66.3 0 120 53.7 120 120 0 38.5-18.1 72.7-46.3 94.7C401.5 332.5 424 372.3 424 418c0 66.3-53.7 120-120 120H152c-17.7 0-32-14.3-32-32V128c0-17.7 14.3-32 32-32zm32 64v96h112c30.9 0 56-25.1 56-56s-25.1-56-56-56H184zm0 160v96h120c30.9 0 56-25.1 56-56s-25.1-56-56-56H184z"
          fill="url(#pink)"/>
  </g>

  <!-- Highlight accent -->
  <ellipse cx="200" cy="140" rx="20" ry="8" fill="white" opacity="0.15"/>
</svg>
